<svg xmlns="http://www.w3.org/2000/svg" xmlns:xlink="http://www.w3.org/1999/xlink" width="250" height="100" viewBox="0 0 250 100"><defs><style>.a{stroke:#fff;}.b,.c{fill:#fff;font-family:FranklinGothic-Book, Franklin Gothic Book;}.b{font-size:17px;}.c{font-size:25px;}.d{fill:#2196f3;}.e{fill:#ffc107;}.f{fill:#4caf50;}.g{fill:#f44336;}.h{stroke:none;}.i{fill:none;}.j{filter:url(#a);}</style><filter id="a" x="0" y="0" width="250" height="100" filterUnits="userSpaceOnUse"><feOffset input="SourceAlpha"/><feGaussianBlur stdDeviation="2.5" result="b"/><feFlood flood-opacity="0.161"/><feComposite operator="in" in2="b"/><feComposite in="SourceGraphic"/></filter></defs><g transform="translate(7.5 7.902)"><g class="j" transform="matrix(1, 0, 0, 1, -7.5, -7.9)"><g class="a" transform="translate(7.5 7.5)"><rect class="h" width="235" height="85" rx="10"/><rect class="i" x="0.5" y="0.5" width="234" height="84" rx="9.5"/></g></g><text class="b" transform="translate(81 31.121)"><tspan x="0" y="0">GET IT ON</tspan></text><text class="c" transform="translate(81 63.598)"><tspan x="0" y="0">Google Play</tspan></text><g transform="translate(22.204 18.986)"><path class="d" d="M40.413,38.886l-22.7,22.7a5.381,5.381,0,0,1-1.672-3.959v-35.6a5.454,5.454,0,0,1,1.73-4.018Z" transform="translate(-16.043 -16.356)"/><path class="e" d="M301.582,162.78a5.565,5.565,0,0,1-2.962,4.9l-6.452,3.578-8.006-7.39-2.2-2.024,8.475-8.475,8.182,4.516A5.565,5.565,0,0,1,301.582,162.78Z" transform="translate(-257.593 -139.311)"/><path class="f" d="M57.563,22.53,34.923,1.65A5.838,5.838,0,0,1,35.979.858,5.9,5.9,0,0,1,41.961.77L66.038,14.054Z" transform="translate(-33.193 0)"/><path class="g" d="M67.187,255.26,41.38,269.483a5.841,5.841,0,0,1-2.933.762,5.713,5.713,0,0,1-3.05-.85,5.332,5.332,0,0,1-1.114-.85l22.7-22.7,2.2,2.023Z" transform="translate(-32.611 -223.316)"/></g></g></svg>