<svg id="carts" xmlns="http://www.w3.org/2000/svg" width="112.036" height="107.164" viewBox="0 0 112.036 107.164">
  <g id="Group_1331" data-name="Group 1331" transform="translate(29.226 82.808)">
    <ellipse id="Ellipse_99" data-name="Ellipse 99" cx="12.178" cy="12.178" rx="12.178" ry="12.178" transform="translate(48.711)" fill="#455a64"/>
    <ellipse id="Ellipse_100" data-name="Ellipse 100" cx="12.178" cy="12.178" rx="12.178" ry="12.178" fill="#455a64"/>
  </g>
  <path id="Path_9058" data-name="Path 9058" d="M177.273,75.494a2.435,2.435,0,0,0-1.827-.823H87.767a2.435,2.435,0,0,0-2.387,2.923L95.123,126.3a2.638,2.638,0,0,0,2.708,1.948L170.9,118.51a2.435,2.435,0,0,0,2.094-2.114l4.871-38.969A2.434,2.434,0,0,0,177.273,75.494Z" transform="translate(-65.847 -60.058)" fill="#ffc107"/>
  <g id="Group_1332" data-name="Group 1332" transform="translate(34.109 24.3)">
    <path id="Path_9059" data-name="Path 9059" d="M156.68,151.679a2.435,2.435,0,0,1-2.4-2.036l-4.871-29.226a2.436,2.436,0,0,1,4.8-.8l4.871,29.226a2.436,2.436,0,0,1-2,2.8A2.341,2.341,0,0,1,156.68,151.679Z" transform="translate(-149.385 -117.527)" fill="#fafafa"/>
    <path id="Path_9060" data-name="Path 9060" d="M218.167,148.965a2.436,2.436,0,0,1-2.436-2.216L213.3,119.958a2.435,2.435,0,0,1,2.2-2.653l.02,0a2.436,2.436,0,0,1,2.645,2.206h0l2.436,26.791a2.436,2.436,0,0,1-2.206,2.645h0Z" transform="translate(-198.695 -117.248)" fill="#fafafa"/>
    <path id="Path_9061" data-name="Path 9061" d="M279.769,146.563a2.436,2.436,0,0,1-2.436-2.436V119.773a2.436,2.436,0,1,1,4.871,0v24.355A2.435,2.435,0,0,1,279.769,146.563Z" transform="translate(-248.119 -117.282)" fill="#fafafa"/>
    <path id="Path_9062" data-name="Path 9062" d="M333.046,144.085h-.273a2.436,2.436,0,0,1-2.165-2.679l0-.025,2.436-21.92a2.47,2.47,0,0,1,2.7-2.168,2.436,2.436,0,0,1,2.153,2.689h0l-2.436,21.92A2.436,2.436,0,0,1,333.046,144.085Z" transform="translate(-289.218 -117.239)" fill="#fafafa"/>
    <path id="Path_9063" data-name="Path 9063" d="M386.438,141.506a2.436,2.436,0,0,1-2.363-3.025L388.946,119a2.436,2.436,0,0,1,4.752,1.069q-.012.055-.027.11L388.8,139.66A2.435,2.435,0,0,1,386.438,141.506Z" transform="translate(-330.432 -117.096)" fill="#fafafa"/>
  </g>
  <path id="Path_9064" data-name="Path 9064" d="M99.857,88.607H43.64A17.1,17.1,0,0,1,26.922,74.9L15.052,15.541H2.436a2.436,2.436,0,0,1,0-4.871H17.049a2.435,2.435,0,0,1,2.387,1.948L31.7,73.945A12.212,12.212,0,0,0,43.64,83.736H99.857a2.436,2.436,0,0,1,0,4.871Z" transform="translate(0 -10.67)" fill="#455a64"/>
</svg>
