<svg xmlns="http://www.w3.org/2000/svg" xmlns:xlink="http://www.w3.org/1999/xlink" width="23.016" height="23.017" viewBox="0 0 23.016 23.017"><defs><linearGradient id="a" x1="0.5" x2="0.5" y2="1" gradientUnits="objectBoundingBox"><stop offset="0" stop-color="#32a3d0"/><stop offset="1" stop-color="#2b7ba5"/></linearGradient></defs><g transform="translate(-0.01 0)"><path d="M21.968,11.509l1.01-2.634a.72.72,0,0,0-.219-.817L20.57,6.283,20.127,3.5a.719.719,0,0,0-.6-.6l-2.786-.443L14.969.266a.72.72,0,0,0-.816-.219L11.518,1.058,8.884.049a.717.717,0,0,0-.816.219L6.294,2.458,3.508,2.9a.721.721,0,0,0-.6.6L2.468,6.284.277,8.059a.72.72,0,0,0-.219.816l1.01,2.634L.058,14.142a.717.717,0,0,0,.219.816l2.191,1.774.443,2.786a.719.719,0,0,0,.6.6l2.786.443,1.775,2.189a.716.716,0,0,0,.817.219l2.632-1.008,2.634,1.01a.72.72,0,0,0,.817-.22l1.774-2.189,2.786-.443a.721.721,0,0,0,.6-.6l.443-2.786,2.189-1.774a.718.718,0,0,0,.219-.816Z" transform="translate(0 0)" fill="url(#a)"/><g transform="translate(7.203 5.754)"><path d="M162.18,132.35a2.158,2.158,0,1,1,2.158-2.158A2.16,2.16,0,0,1,162.18,132.35Zm0-2.877a.719.719,0,1,0,.719.719A.719.719,0,0,0,162.18,129.473Z" transform="translate(-160.022 -128.034)" fill="#fafafa"/><path d="M258.18,292.35a2.158,2.158,0,1,1,2.158-2.158A2.16,2.16,0,0,1,258.18,292.35Zm0-2.877a.719.719,0,1,0,.719.719A.721.721,0,0,0,258.18,289.473Z" transform="translate(-251.707 -280.842)" fill="#fafafa"/><path d="M160.755,139.526a.719.719,0,0,1-.584-1.138l7.192-10.069a.719.719,0,0,1,1.171.836l-7.192,10.069A.722.722,0,0,1,160.755,139.526Z" transform="translate(-160.036 -128.017)" fill="#fafafa"/></g></g></svg>