<svg xmlns="http://www.w3.org/2000/svg" xmlns:xlink="http://www.w3.org/1999/xlink" width="250" height="100" viewBox="0 0 250 100"><defs><style>.a{stroke:#fff;}.b,.c,.d{fill:#fff;}.c{font-size:17px;}.c,.d{font-family:FranklinGothic-Book, Franklin Gothic Book;}.d{font-size:29px;}.e{stroke:none;}.f{fill:none;}.g{filter:url(#a);}</style><filter id="a" x="0" y="0" width="250" height="100" filterUnits="userSpaceOnUse"><feOffset input="SourceAlpha"/><feGaussianBlur stdDeviation="2.5" result="b"/><feFlood flood-opacity="0.161"/><feComposite operator="in" in2="b"/><feComposite in="SourceGraphic"/></filter></defs><g transform="translate(7.5 7.5)"><g class="g" transform="matrix(1, 0, 0, 1, -7.5, -7.5)"><g class="a" transform="translate(7.5 7.5)"><rect class="e" width="235" height="85" rx="10"/><rect class="f" x="0.5" y="0.5" width="234" height="84" rx="9.5"/></g></g><g transform="translate(22.146 15.526)"><g transform="translate(0)"><path class="b" d="M21.928,0h.387A11.657,11.657,0,0,1,19.38,8.785c-1.747,2.063-4.14,4.064-8.011,3.76a11.307,11.307,0,0,1,2.988-8.513A12.907,12.907,0,0,1,21.928,0Z" transform="translate(10.738)"/><path class="b" d="M46.486,32.324v.108a31.674,31.674,0,0,1-4.532,8.737c-1.728,2.379-3.846,5.579-7.628,5.579-3.268,0-5.438-2.1-8.788-2.159-3.543-.057-5.491,1.757-8.73,2.214H15.7c-2.379-.344-4.3-2.228-5.7-3.925A34.39,34.39,0,0,1,2.1,23.094V20.658C2.355,14.725,5.238,9.9,9.07,7.563a11.764,11.764,0,0,1,7.9-1.829,19.869,19.869,0,0,1,3.87,1.109A10.687,10.687,0,0,0,24.706,8a9.285,9.285,0,0,0,2.713-.83c2.668-.963,5.283-2.068,8.73-1.549,4.143.626,7.083,2.467,8.9,5.307-3.5,2.23-6.275,5.591-5.8,11.331C39.668,27.476,42.7,30.526,46.486,32.324Z" transform="translate(-2.104 7.636)"/></g></g><text class="c" transform="translate(205 29)"><tspan x="-121.025" y="0">Download on the</tspan></text><text class="d" transform="translate(206 63)"><tspan x="-118.917" y="0">App Store</tspan></text></g></svg>