<svg xmlns="http://www.w3.org/2000/svg" width="26.14" height="26.14" viewBox="0 0 26.14 26.14">
  <g id="price-tag" transform="translate(0 0)">
    <g id="Group_1333" data-name="Group 1333" transform="translate(9.841 6.054)">
      <path id="Path_9065" data-name="Path 9065" d="M200.956,118.578,193.767,129l-1.019,8.334,10.646,1.334,1.773-14.727Z" transform="translate(-192.748 -118.578)" fill="#2b7ba5"/>
    </g>
    <path id="Path_9066" data-name="Path 9066" d="M339.68.659a2.3,2.3,0,0,0-1.526-.652,2.28,2.28,0,0,0-1.722.652l-5.314,5.332.527.527.556.556,1.578-1.6a3.835,3.835,0,0,0,4.819-.487l1.083-1.083a2.3,2.3,0,0,0,0-3.249ZM338.6,2.825l-1.083,1.083a2.3,2.3,0,0,1-2.615.449l2.615-2.615A.766.766,0,0,1,338.6,2.825Z" transform="translate(-314.212 -0.005)" fill="#516373"/>
    <path id="Path_9067" data-name="Path 9067" d="M343.567,5.521a3.835,3.835,0,0,0,4.819-.487l1.083-1.083a2.3,2.3,0,0,0,0-3.249,2.3,2.3,0,0,0-1.526-.652l-6.51,6.51.556.556ZM347.3,1.785a.766.766,0,0,1,1.083,1.083L347.3,3.951a2.3,2.3,0,0,1-2.615.449Z" transform="translate(-324.001 -0.049)" fill="#3e4d59"/>
    <path id="Path_9068" data-name="Path 9068" d="M18.175,113H10.631L0,123.589l3.791,3.791,3.791,3.791,10.594-10.6V113Z" transform="translate(0 -107.227)" fill="#75caec"/>
    <path id="Path_9069" data-name="Path 9069" d="M88.631,120.569V113L74.246,127.38l3.791,3.791Z" transform="translate(-70.455 -107.227)" fill="#b8e2f3"/>
    <path id="Path_9070" data-name="Path 9070" d="M117.037,192.566l-.556-.556-.527-.527-1.192,1.192a2.283,2.283,0,0,0-2.612,3.666.766.766,0,1,1-1.069.015L110,195.274a2.285,2.285,0,0,0-.431,2.6l-1.193,1.193.527.527.556.556,1.192-1.192a2.241,2.241,0,0,0,2.6-.432,2.3,2.3,0,0,0-.014-3.264.765.765,0,1,1,1.1.016l1.083,1.083a2.283,2.283,0,0,0,.432-2.6Z" transform="translate(-102.84 -181.707)" fill="#4c8d44"/>
    <g id="Group_1334" data-name="Group 1334" transform="translate(6.06 10.303)">
      <path id="Path_9071" data-name="Path 9071" d="M224.767,205.071l1.083,1.083a2.283,2.283,0,0,0,.432-2.6l1.192-1.192-.556-.556-2.167,2.167A.766.766,0,0,1,224.767,205.071Z" transform="translate(-219.337 -201.807)" fill="#64ac53"/>
      <path id="Path_9072" data-name="Path 9072" d="M120.445,269.127a2.241,2.241,0,0,0,2.6-.432,2.3,2.3,0,0,0-.014-3.264l-1.083,1.083a.766.766,0,1,1-1.083,1.083l-2.167,2.167.556.556Z" transform="translate(-118.697 -262.183)" fill="#64ac53"/>
    </g>
  </g>
</svg>
