<svg xmlns="http://www.w3.org/2000/svg" width="90.508" height="86.394" viewBox="0 0 90.508 86.394">
  <g id="money-bag" transform="translate(0 -11.636)">
    <path id="Path_9085" data-name="Path 9085" d="M47.311,462.046H2.057A1.944,1.944,0,0,1,0,459.989v-4.114a1.943,1.943,0,0,1,2.057-2.057H47.311a1.943,1.943,0,0,1,2.057,2.057v4.114A1.943,1.943,0,0,1,47.311,462.046Z" transform="translate(0 -364.016)" fill="#f6b545"/>
    <path id="Path_9086" data-name="Path 9086" d="M39.083,455.876H0a1.943,1.943,0,0,1,2.057-2.057H39.083Z" transform="translate(0 -364.017)" fill="#ffcb5b"/>
    <g id="Group_1343" data-name="Group 1343" transform="translate(0 91.859)">
      <path id="Path_9087" data-name="Path 9087" d="M39.083,465.454v2.057a1.943,1.943,0,0,1-2.057,2.057H0a1.943,1.943,0,0,0,2.057,2.057H47.311a1.943,1.943,0,0,0,2.057-2.057v-4.114H39.083Z" transform="translate(0 -465.454)" fill="#f19920"/>
      <path id="Path_9088" data-name="Path 9088" d="M25.33,469.568v-3.086a1.028,1.028,0,0,0-2.057,0v3.086" transform="translate(-19.159 -465.454)" fill="#f19920"/>
      <path id="Path_9089" data-name="Path 9089" d="M60.239,469.568v-3.086a1.028,1.028,0,0,0-2.057,0v3.086" transform="translate(-47.897 -465.454)" fill="#f19920"/>
      <path id="Path_9090" data-name="Path 9090" d="M95.148,469.568v-3.086a1.028,1.028,0,0,0-2.057,0v3.086" transform="translate(-76.635 -465.454)" fill="#f19920"/>
      <path id="Path_9091" data-name="Path 9091" d="M130.057,469.568v-3.086a1.028,1.028,0,0,0-2.057,0v3.086" transform="translate(-105.373 -465.454)" fill="#f19920"/>
      <path id="Path_9092" data-name="Path 9092" d="M164.966,469.568v-3.086a1.028,1.028,0,0,0-2.057,0v3.086" transform="translate(-134.111 -465.454)" fill="#f19920"/>
      <path id="Path_9093" data-name="Path 9093" d="M199.876,469.568v-3.086a1.028,1.028,0,0,0-2.057,0v3.086" transform="translate(-162.85 -465.454)" fill="#f19920"/>
    </g>
    <path id="Path_9094" data-name="Path 9094" d="M70.584,415.5H25.33a1.943,1.943,0,0,1-2.057-2.057V409.33a1.943,1.943,0,0,1,2.057-2.057H70.584a1.943,1.943,0,0,1,2.057,2.057v4.114A1.943,1.943,0,0,1,70.584,415.5Z" transform="translate(-19.159 -325.699)" fill="#f6b545"/>
    <path id="Path_9095" data-name="Path 9095" d="M62.356,409.33H23.273a1.943,1.943,0,0,1,2.057-2.057H62.356Z" transform="translate(-19.159 -325.699)" fill="#ffcb5b"/>
    <g id="Group_1344" data-name="Group 1344" transform="translate(4.114 83.631)">
      <path id="Path_9096" data-name="Path 9096" d="M62.356,418.908v2.057a1.943,1.943,0,0,1-2.057,2.057H23.273a1.943,1.943,0,0,0,2.057,2.057H70.584a1.943,1.943,0,0,0,2.057-2.057v-4.114H62.356Z" transform="translate(-23.273 -418.908)" fill="#f19920"/>
      <path id="Path_9097" data-name="Path 9097" d="M48.6,423.023v-3.086a1.028,1.028,0,1,0-2.057,0v3.086" transform="translate(-42.432 -418.909)" fill="#f19920"/>
      <path id="Path_9098" data-name="Path 9098" d="M83.512,423.023v-3.086a1.028,1.028,0,1,0-2.057,0v3.086" transform="translate(-71.17 -418.909)" fill="#f19920"/>
      <path id="Path_9099" data-name="Path 9099" d="M118.421,423.023v-3.086a1.028,1.028,0,1,0-2.057,0v3.086" transform="translate(-99.908 -418.909)" fill="#f19920"/>
      <path id="Path_9100" data-name="Path 9100" d="M153.33,423.023v-3.086a1.028,1.028,0,1,0-2.057,0v3.086" transform="translate(-128.646 -418.909)" fill="#f19920"/>
      <path id="Path_9101" data-name="Path 9101" d="M188.239,423.023v-3.086a1.028,1.028,0,0,0-2.057,0v3.086" transform="translate(-157.384 -418.909)" fill="#f19920"/>
      <path id="Path_9102" data-name="Path 9102" d="M223.148,423.023v-3.086a1.028,1.028,0,1,0-2.057,0v3.086" transform="translate(-186.122 -418.909)" fill="#f19920"/>
    </g>
    <path id="Path_9103" data-name="Path 9103" d="M93.857,322.41H48.6a1.943,1.943,0,0,1-2.057-2.057v-4.114a1.943,1.943,0,0,1,2.057-2.057H93.857a1.943,1.943,0,0,1,2.057,2.057v4.114A1.943,1.943,0,0,1,93.857,322.41Z" transform="translate(-38.318 -249.064)" fill="#f6b545"/>
    <path id="Path_9104" data-name="Path 9104" d="M85.628,316.239H46.545a1.943,1.943,0,0,1,2.057-2.057H85.628Z" transform="translate(-38.317 -249.064)" fill="#ffcb5b"/>
    <g id="Group_1345" data-name="Group 1345" transform="translate(8.228 67.175)">
      <path id="Path_9105" data-name="Path 9105" d="M85.628,325.817v2.057a1.943,1.943,0,0,1-2.057,2.057H46.545a1.943,1.943,0,0,0,2.057,2.057H93.856a1.943,1.943,0,0,0,2.057-2.057v-4.114H85.628Z" transform="translate(-46.545 -325.817)" fill="#f19920"/>
      <path id="Path_9106" data-name="Path 9106" d="M71.876,329.932v-3.086a1.028,1.028,0,1,0-2.057,0v3.086" transform="translate(-65.705 -325.818)" fill="#f19920"/>
      <path id="Path_9107" data-name="Path 9107" d="M106.785,329.932v-3.086a1.028,1.028,0,1,0-2.057,0v3.086" transform="translate(-94.443 -325.818)" fill="#f19920"/>
      <path id="Path_9108" data-name="Path 9108" d="M141.694,329.932v-3.086a1.028,1.028,0,1,0-2.057,0v3.086" transform="translate(-123.181 -325.818)" fill="#f19920"/>
      <path id="Path_9109" data-name="Path 9109" d="M176.6,329.932v-3.086a1.028,1.028,0,1,0-2.057,0v3.086" transform="translate(-151.919 -325.818)" fill="#f19920"/>
      <path id="Path_9110" data-name="Path 9110" d="M211.512,329.932v-3.086a1.028,1.028,0,1,0-2.057,0v3.086" transform="translate(-180.657 -325.818)" fill="#f19920"/>
      <path id="Path_9111" data-name="Path 9111" d="M246.421,329.932v-3.086a1.028,1.028,0,1,0-2.057,0v3.086" transform="translate(-209.395 -325.818)" fill="#f19920"/>
    </g>
    <path id="Path_9112" data-name="Path 9112" d="M70.584,275.865H25.33a1.943,1.943,0,0,1-2.057-2.057v-4.114a1.943,1.943,0,0,1,2.057-2.057H70.584a1.943,1.943,0,0,1,2.057,2.057v4.114A1.943,1.943,0,0,1,70.584,275.865Z" transform="translate(-19.159 -210.747)" fill="#f6b545"/>
    <path id="Path_9113" data-name="Path 9113" d="M62.356,269.694H23.273a1.943,1.943,0,0,1,2.057-2.057H62.356Z" transform="translate(-19.159 -210.747)" fill="#ffcb5b"/>
    <g id="Group_1346" data-name="Group 1346" transform="translate(4.114 58.947)">
      <path id="Path_9114" data-name="Path 9114" d="M62.356,279.272v2.057a1.943,1.943,0,0,1-2.057,2.057H23.273a1.943,1.943,0,0,0,2.057,2.057H70.584a1.943,1.943,0,0,0,2.057-2.057v-4.114H62.356Z" transform="translate(-23.273 -279.272)" fill="#f19920"/>
      <path id="Path_9115" data-name="Path 9115" d="M48.6,283.386V280.3a1.028,1.028,0,1,0-2.057,0v3.086" transform="translate(-42.432 -279.272)" fill="#f19920"/>
      <path id="Path_9116" data-name="Path 9116" d="M83.512,283.386V280.3a1.028,1.028,0,1,0-2.057,0v3.086" transform="translate(-71.17 -279.272)" fill="#f19920"/>
      <path id="Path_9117" data-name="Path 9117" d="M118.421,283.386V280.3a1.028,1.028,0,1,0-2.057,0v3.086" transform="translate(-99.908 -279.272)" fill="#f19920"/>
      <path id="Path_9118" data-name="Path 9118" d="M153.33,283.386V280.3a1.028,1.028,0,1,0-2.057,0v3.086" transform="translate(-128.646 -279.272)" fill="#f19920"/>
      <path id="Path_9119" data-name="Path 9119" d="M188.239,283.386V280.3a1.028,1.028,0,0,0-2.057,0v3.086" transform="translate(-157.384 -279.272)" fill="#f19920"/>
      <path id="Path_9120" data-name="Path 9120" d="M223.148,283.386V280.3a1.028,1.028,0,1,0-2.057,0v3.086" transform="translate(-186.122 -279.272)" fill="#f19920"/>
    </g>
    <path id="Path_9121" data-name="Path 9121" d="M47.311,368.955H2.057A1.944,1.944,0,0,1,0,366.9v-4.114a1.943,1.943,0,0,1,2.057-2.057H47.311a1.943,1.943,0,0,1,2.057,2.057V366.9A1.943,1.943,0,0,1,47.311,368.955Z" transform="translate(0 -287.381)" fill="#f6b545"/>
    <path id="Path_9122" data-name="Path 9122" d="M39.083,362.785H0a1.943,1.943,0,0,1,2.057-2.057H39.083Z" transform="translate(0 -287.382)" fill="#ffcb5b"/>
    <g id="Group_1347" data-name="Group 1347" transform="translate(0 75.403)">
      <path id="Path_9123" data-name="Path 9123" d="M39.083,372.363v2.057a1.943,1.943,0,0,1-2.057,2.057H0a1.943,1.943,0,0,0,2.057,2.057H47.311a1.943,1.943,0,0,0,2.057-2.057v-4.114H39.083Z" transform="translate(0 -372.363)" fill="#f19920"/>
      <path id="Path_9124" data-name="Path 9124" d="M25.33,376.477v-3.086a1.028,1.028,0,0,0-2.057,0v3.086" transform="translate(-19.159 -372.363)" fill="#f19920"/>
      <path id="Path_9125" data-name="Path 9125" d="M60.239,376.477v-3.086a1.028,1.028,0,0,0-2.057,0v3.086" transform="translate(-47.897 -372.363)" fill="#f19920"/>
      <path id="Path_9126" data-name="Path 9126" d="M95.148,376.477v-3.086a1.028,1.028,0,0,0-2.057,0v3.086" transform="translate(-76.635 -372.363)" fill="#f19920"/>
      <path id="Path_9127" data-name="Path 9127" d="M130.057,376.477v-3.086a1.028,1.028,0,0,0-2.057,0v3.086" transform="translate(-105.373 -372.363)" fill="#f19920"/>
      <path id="Path_9128" data-name="Path 9128" d="M164.966,376.477v-3.086a1.028,1.028,0,0,0-2.057,0v3.086" transform="translate(-134.111 -372.363)" fill="#f19920"/>
      <path id="Path_9129" data-name="Path 9129" d="M199.876,376.477v-3.086a1.028,1.028,0,0,0-2.057,0v3.086" transform="translate(-162.85 -372.363)" fill="#f19920"/>
    </g>
    <path id="Path_9130" data-name="Path 9130" d="M143.869,84.66a9.861,9.861,0,0,1-4.114-8.228,47,47,0,0,0-13.782-33.323l-8.845-8.845V28.092l7.2-9.051a4.914,4.914,0,0,0,1.029-2.88,4.566,4.566,0,0,0-4.525-4.525h-7.817l-2.057,4.114-4.114-4.114H96.97a4.566,4.566,0,0,0-4.525,4.525,4.915,4.915,0,0,0,1.028,2.88l7.2,9.051v6.171l-8.845,8.845A47,47,0,0,0,78.045,76.431h0a9.86,9.86,0,0,1-4.114,8.228,9.86,9.86,0,0,0-4.114,8.228h0A5.093,5.093,0,0,0,74.96,98.03h67.881a5.093,5.093,0,0,0,5.143-5.143h0A9.86,9.86,0,0,0,143.869,84.66Z" transform="translate(-57.475)" fill="#c97629"/>
    <path id="Path_9131" data-name="Path 9131" d="M144.828,84.66a10.52,10.52,0,0,1-4.114-8.434c.206-12.959-5.76-25.1-14.81-34.352l-7.817-7.611V28.092l7.2-9.051a4.618,4.618,0,0,0,.411-5.348,4.569,4.569,0,0,0-4.114-2.057,2.173,2.173,0,0,0-1.851,2.88,3.874,3.874,0,0,1,.411,1.646,4.915,4.915,0,0,1-1.028,2.88l-7.2,9.051v6.171H101.631L99.574,36.32h14.4l7.611,7.611c8.434,8.434,11.725,19.953,10.9,31.678a10.294,10.294,0,0,0,3.908,8.845c.206.206.411.411.617.411,3.086,3.291.411,8.845-4.32,8.845H70.982a5.078,5.078,0,0,0,4.937,4.114H143.8a5.092,5.092,0,0,0,5.142-5.142v-.411A9.562,9.562,0,0,0,144.828,84.66Z" transform="translate(-58.434 0)" fill="#b06328"/>
    <path id="Path_9132" data-name="Path 9132" d="M242.689,110.9H224.176a3.164,3.164,0,0,1-3.086-3.086h0a3.164,3.164,0,0,1,3.086-3.086h18.513a3.164,3.164,0,0,1,3.086,3.086h0A3.163,3.163,0,0,1,242.689,110.9Z" transform="translate(-182.007 -76.634)" fill="#ffcb5b"/>
    <path id="Path_9133" data-name="Path 9133" d="M233.755,104.727H244.04a.972.972,0,0,1,1.028,1.028h0a.972.972,0,0,1-1.028,1.028H233.755a.972.972,0,0,1-1.028-1.028h0A.972.972,0,0,1,233.755,104.727Z" transform="translate(-191.587 -76.635)" fill="#ffe278"/>
    <path id="Path_9134" data-name="Path 9134" d="M243.648,104.727h-1.028v2.057a1.943,1.943,0,0,1-2.057,2.057H222.255a3.094,3.094,0,0,0,2.88,2.057h18.513a3.085,3.085,0,1,0,0-6.171Z" transform="translate(-182.966 -76.635)" fill="#f6b545"/>
    <path id="Path_9135" data-name="Path 9135" d="M303.574,128h6.171a.972.972,0,0,1,1.028,1.028h0a.972.972,0,0,1-1.028,1.028h-6.171a.972.972,0,0,1-1.028-1.028h0A.971.971,0,0,1,303.574,128Z" transform="translate(-249.064 -95.794)" fill="#f19920"/>
    <rect id="Rectangle_199" data-name="Rectangle 199" width="4.114" height="16.456" transform="translate(49.368 34.263)" fill="#f6b545"/>
    <path id="Path_9136" data-name="Path 9136" d="M279.273,139.636v2.057h2.057v14.4h2.057V139.636Z" transform="translate(-229.905 -105.373)" fill="#f19920"/>
    <circle id="Ellipse_101" data-name="Ellipse 101" cx="16.456" cy="16.456" r="16.456" transform="translate(34.969 48.662)" fill="#f6b545"/>
    <path id="Path_9137" data-name="Path 9137" d="M254.6,254.836a15.734,15.734,0,0,1,3.908,10.491,16.5,16.5,0,0,1-16.456,16.456,15.733,15.733,0,0,1-10.491-3.908,16.322,16.322,0,0,0,12.548,5.965,16.5,16.5,0,0,0,16.456-16.456A15.712,15.712,0,0,0,254.6,254.836Z" transform="translate(-190.63 -200.209)" fill="#b06328"/>
    <circle id="Ellipse_102" data-name="Ellipse 102" cx="14.399" cy="14.399" r="14.399" transform="translate(37.026 50.719)" fill="#ffcb5b"/>
    <path id="Path_9138" data-name="Path 9138" d="M305.308,314.182a14.31,14.31,0,0,1-14.4,14.4v2.057a16.5,16.5,0,0,0,16.456-16.456Z" transform="translate(-239.484 -249.064)" fill="#f19920"/>
    <path id="Path_9139" data-name="Path 9139" d="M214.274,223.148v-2.057a16.5,16.5,0,0,0-16.456,16.456h2.057A14.311,14.311,0,0,1,214.274,223.148Z" transform="translate(-162.849 -172.429)" fill="#ffe27a"/>
    <path id="Path_9140" data-name="Path 9140" d="M254.649,254.65h-4.114a2.057,2.057,0,0,1,0-4.114h6.171a2.057,2.057,0,1,0,0-4.114h-2.057a2.057,2.057,0,0,0-4.114,0h0a6.171,6.171,0,0,0,0,12.342h4.114a2.057,2.057,0,1,1,0,4.114h-6.171a2.057,2.057,0,0,0,0,4.114h2.057a2.057,2.057,0,1,0,4.114,0h0a6.171,6.171,0,1,0,0-12.342Z" transform="translate(-201.167 -191.589)" fill="#e78825"/>
  </g>
</svg>
