<svg xmlns="http://www.w3.org/2000/svg" width="53.428" height="49.866" viewBox="0 0 53.428 49.866">
  <g id="speedometer" transform="translate(0 -17.067)">
    <path id="Path_9045" data-name="Path 9045" d="M93.589,24.3a19.911,19.911,0,0,1,13.8,5.677l5.12-5.12a26.654,26.654,0,0,0-18.922-7.792,27.05,27.05,0,0,0-18.922,7.792l5.12,5.12A19.434,19.434,0,0,1,93.589,24.3Z" transform="translate(-66.875)" fill="#f8b64c"/>
    <path id="Path_9046" data-name="Path 9046" d="M12.912,96.853l-5.12-5.12a26.873,26.873,0,0,0,0,37.845l5.12-5.12a19.618,19.618,0,0,1,0-27.6Z" transform="translate(0 -66.874)" fill="#54c0eb"/>
    <path id="Path_9047" data-name="Path 9047" d="M393.387,91.733l-5.12,5.12a19.435,19.435,0,0,1,5.677,13.8,19.911,19.911,0,0,1-5.677,13.8l5.12,5.12a26.654,26.654,0,0,0,7.792-18.923A27.05,27.05,0,0,0,393.387,91.733Z" transform="translate(-347.751 -66.874)" fill="#f1543f"/>
    <path id="Path_9048" data-name="Path 9048" d="M151.338,92.077l-4.9,4.9a12.922,12.922,0,0,0-8.9-3.673,12.718,12.718,0,0,0-8.9,3.673h0l-4.9-4.9a19.618,19.618,0,0,1,27.6,0Z" transform="translate(-110.821 -62.098)" fill="#ffd15c"/>
    <path id="Path_9049" data-name="Path 9049" d="M79.908,163.506l-4.9,4.9a19.435,19.435,0,0,1-5.677-13.8,19.911,19.911,0,0,1,5.677-13.8l4.9,4.9a12.718,12.718,0,0,0-3.673,8.9A11.836,11.836,0,0,0,79.908,163.506Z" transform="translate(-62.099 -110.82)" fill="#84dbff"/>
    <path id="Path_9050" data-name="Path 9050" d="M351.907,154.6a19.911,19.911,0,0,1-5.677,13.8l-4.9-4.9a12.922,12.922,0,0,0,3.673-8.9,12.718,12.718,0,0,0-3.673-8.9l4.9-4.9A19.434,19.434,0,0,1,351.907,154.6Z" transform="translate(-305.714 -110.822)" fill="#ff7058"/>
    <path id="Path_9051" data-name="Path 9051" d="M249.257,171.733l-14.47,11.02a2.644,2.644,0,0,1-2.671,2.226,2.783,2.783,0,1,1,0-5.565,2.45,2.45,0,0,1,.89.111Z" transform="translate(-205.402 -138.526)" fill="#40596b"/>
    <path id="Path_9052" data-name="Path 9052" d="M147.109,422.326H127.964a4.228,4.228,0,0,1-4.23-4.23h0a4.228,4.228,0,0,1,4.23-4.23H147a4.228,4.228,0,0,1,4.23,4.23h0A4.066,4.066,0,0,1,147.109,422.326Z" transform="translate(-110.822 -355.393)" fill="#cdd6e0"/>
    <circle id="Ellipse_97" data-name="Ellipse 97" cx="1.113" cy="1.113" r="1.113" transform="translate(25.601 42.668)" fill="#fff"/>
  </g>
</svg>
