<svg xmlns="http://www.w3.org/2000/svg" width="58.453" height="58.452" viewBox="0 0 58.453 58.452">
  <g id="price-tag" transform="translate(0 0)">
    <g id="Group_1333" data-name="Group 1333" transform="translate(22.005 13.537)">
      <path id="Path_9065" data-name="Path 9065" d="M211.1,118.578l-16.076,23.295-2.278,18.636,23.806,2.984,3.965-32.931Z" transform="translate(-192.748 -118.578)" fill="#ff641a"/>
    </g>
    <path id="Path_9066" data-name="Path 9066" d="M350.265,1.467A5.148,5.148,0,0,0,346.852.01,5.1,5.1,0,0,0,343,1.467L331.117,13.39l1.178,1.178,1.244,1.244,3.529-3.569a8.576,8.576,0,0,0,10.776-1.088l2.422-2.422a5.142,5.142,0,0,0,0-7.265Zm-2.422,4.843-2.422,2.422a5.143,5.143,0,0,1-5.848,1l5.848-5.847a1.712,1.712,0,0,1,2.422,2.422Z" transform="translate(-293.315 -0.005)" fill="#516373"/>
    <path id="Path_9067" data-name="Path 9067" d="M346.206,12.283a8.576,8.576,0,0,0,10.776-1.088L359.4,8.773a5.142,5.142,0,0,0,0-7.265A5.148,5.148,0,0,0,355.99.051L341.433,14.608l1.244,1.244ZM354.56,3.93a1.712,1.712,0,0,1,2.422,2.422L354.56,8.773a5.143,5.143,0,0,1-5.848,1Z" transform="translate(-302.453 -0.046)" fill="#3e4d59"/>
    <path id="Path_9068" data-name="Path 9068" d="M40.641,113H23.773L0,136.685l8.476,8.476,8.476,8.476,23.691-23.707V113Z" transform="translate(0 -100.096)" fill="#ffe680"/>
    <path id="Path_9069" data-name="Path 9069" d="M106.413,129.931V113L74.246,145.162l8.476,8.476Z" transform="translate(-65.77 -100.096)" fill="#ffc550"/>
    <path id="Path_9070" data-name="Path 9070" d="M127.747,193.9l-1.243-1.243-1.179-1.179-2.667,2.667a5.106,5.106,0,0,0-5.841,8.2,1.712,1.712,0,1,1-2.39.034L112,199.96a5.109,5.109,0,0,0-.963,5.808l-2.668,2.668,1.179,1.179,1.243,1.243,2.666-2.666a5.011,5.011,0,0,0,5.811-.966,5.142,5.142,0,0,0-.031-7.3,1.711,1.711,0,1,1,2.453.035l2.422,2.422a5.1,5.1,0,0,0,.966-5.811Z" transform="translate(-96 -169.623)" fill="#ff7b4a"/>
    <g id="Group_1334" data-name="Group 1334" transform="translate(13.551 23.039)">
      <path id="Path_9071" data-name="Path 9071" d="M224.786,209.106l2.422,2.422a5.1,5.1,0,0,0,.966-5.811l2.666-2.666-1.243-1.243-4.845,4.845A1.714,1.714,0,0,1,224.786,209.106Z" transform="translate(-212.644 -201.807)" fill="#ff435b"/>
      <path id="Path_9072" data-name="Path 9072" d="M122.606,273.7a5.011,5.011,0,0,0,5.811-.966,5.142,5.142,0,0,0-.031-7.3l-2.422,2.422a1.712,1.712,0,1,1-2.421,2.421L118.7,275.12l1.243,1.243Z" transform="translate(-118.697 -258.167)" fill="#ff435b"/>
    </g>
  </g>
</svg>
