<svg xmlns="http://www.w3.org/2000/svg" width="34.441" height="34.359" viewBox="0 0 34.441 34.359">
  <g id="search" transform="translate(0 0)" opacity="0.7">
    <g id="Group_1277" data-name="Group 1277" transform="translate(0 0)">
      <g id="Group_1276" data-name="Group 1276" transform="translate(0 0)">
        <path id="Path_9038" data-name="Path 9038" d="M15.187.616A15.146,15.146,0,1,0,30.375,15.762,15.184,15.184,0,0,0,15.187.616Zm0,27.8a12.656,12.656,0,1,1,12.7-12.656A12.692,12.692,0,0,1,15.187,28.418Z" transform="translate(0 -0.616)" fill="#2e2e2e"/>
      </g>
    </g>
    <g id="Group_1279" data-name="Group 1279" transform="translate(23.777 23.736)">
      <g id="Group_1278" data-name="Group 1278">
        <path id="Path_9039" data-name="Path 9039" d="M363.764,361.962l-8.175-8.133a1.245,1.245,0,1,0-1.756,1.765l8.175,8.133a1.245,1.245,0,0,0,1.756-1.765Z" transform="translate(-353.466 -353.466)" fill="#2e2e2e"/>
      </g>
    </g>
  </g>
</svg>
