<svg xmlns="http://www.w3.org/2000/svg" width="109.574" height="116.906" viewBox="0 0 109.574 116.906">
  <g id="shopping-bag" transform="translate(0 0)">
    <path id="Path_9073" data-name="Path 9073" d="M106.894,197.152a8.64,8.64,0,0,1-8.629,8.424h-73.5a8.638,8.638,0,0,1-8.627-8.424c-.982-37.315,7.185-65.819,11.027-77.04a7.7,7.7,0,0,1,7.287-5.2H88.578a7.7,7.7,0,0,1,7.289,5.2,205.736,205.736,0,0,1,8.179,33.756A236.663,236.663,0,0,1,106.894,197.152Z" transform="translate(-16.055 -88.671)" fill="#db5c6e"/>
    <path id="Path_9074" data-name="Path 9074" d="M195.847,328.822a8.64,8.64,0,0,1-8.629,8.424H146.5a7.058,7.058,0,0,1-6.359-3.991,92.382,92.382,0,0,1-8.8-40.742,7.069,7.069,0,0,1,7.06-6.975H193A236.64,236.64,0,0,1,195.847,328.822Z" transform="translate(-105.008 -220.341)" fill="#d64553"/>
    <path id="Path_9075" data-name="Path 9075" d="M41.923,114.908c-2.384,0-4.5,2.089-5.275,5.2-2.783,11.221-8.693,39.725-7.983,77.04.087,4.683,2.854,8.424,6.246,8.424H24.763a8.638,8.638,0,0,1-8.627-8.424c-.982-37.315,7.183-65.819,11.025-77.04a7.7,7.7,0,0,1,7.289-5.2Z" transform="translate(-16.055 -88.671)" fill="#d64553"/>
    <path id="Path_9076" data-name="Path 9076" d="M158.208,48.278a3.814,3.814,0,0,1-3.814-3.814V22.327a14.7,14.7,0,1,0-29.4,0V44.464a3.814,3.814,0,1,1-7.629,0V22.327a22.327,22.327,0,1,1,44.653,0V44.464A3.814,3.814,0,0,1,158.208,48.278Z" transform="translate(-94.236 0)" fill="#407093"/>
    <g id="Group_1335" data-name="Group 1335" transform="translate(23.133 0)">
      <path id="Path_9077" data-name="Path 9077" d="M240.32,70.245V48.108a14.674,14.674,0,0,0-16.645-14.565,14.717,14.717,0,0,1,12.752,14.565V70.245a3.809,3.809,0,0,0,5.761,3.276A3.809,3.809,0,0,1,240.32,70.245Z" transform="translate(-199.402 -25.781)" fill="#365e7d"/>
      <path id="Path_9078" data-name="Path 9078" d="M121.262,44.464V22.327A22.357,22.357,0,0,1,141.642.086C141,.03,140.351,0,139.7,0a22.352,22.352,0,0,0-22.327,22.327V44.464a3.809,3.809,0,0,0,5.761,3.276A3.808,3.808,0,0,1,121.262,44.464Z" transform="translate(-117.369 0)" fill="#365e7d"/>
    </g>
    <path id="Path_9079" data-name="Path 9079" d="M170.9,333.258a92.427,92.427,0,0,1-8.8-40.742,7.068,7.068,0,0,1,7.061-6.974h62.088a7.068,7.068,0,0,1,7.061,6.974,92.43,92.43,0,0,1-8.8,40.742,7.06,7.06,0,0,1-6.359,3.992H177.257A7.059,7.059,0,0,1,170.9,333.258Z" transform="translate(-128.745 -220.344)" fill="#ffd064"/>
    <path id="Path_9080" data-name="Path 9080" d="M184.405,337.244h-7.15a7.061,7.061,0,0,1-6.359-3.991,92.454,92.454,0,0,1-8.8-40.742,7.07,7.07,0,0,1,7.062-6.975h9.673c-2.66,0-4.822,3.111-4.86,6.975a127.98,127.98,0,0,0,6.057,40.742c.809,2.441,2.511,3.991,4.376,3.991Z" transform="translate(-128.744 -220.339)" fill="#ffc250"/>
    <path id="Path_9081" data-name="Path 9081" d="M281.358,344.408a15.649,15.649,0,0,1-15.632-15.632v-7.9a3.064,3.064,0,0,1,6.128,0v7.9a9.5,9.5,0,0,0,19.009,0v-7.9a3.064,3.064,0,0,1,6.128,0v7.9A15.649,15.649,0,0,1,281.358,344.408Z" transform="translate(-208.718 -245.243)" fill="#407093"/>
    <g id="Group_1336" data-name="Group 1336" transform="translate(57.008 72.566)">
      <path id="Path_9082" data-name="Path 9082" d="M341.9,338.282a9.515,9.515,0,0,0,9.5-9.5v-7.9a3.062,3.062,0,0,1,1.631-2.707,3.063,3.063,0,0,0-4.5,2.707v7.9a9.519,9.519,0,0,1-8.072,9.4A9.568,9.568,0,0,0,341.9,338.282Z" transform="translate(-323.397 -317.81)" fill="#365e7d"/>
      <path id="Path_9083" data-name="Path 9083" d="M268.592,328.777v-7.9a3.062,3.062,0,0,1,1.631-2.707,3.063,3.063,0,0,0-4.5,2.707v7.9a15.649,15.649,0,0,0,15.632,15.632c.483,0,.961-.025,1.433-.069A15.651,15.651,0,0,1,268.592,328.777Z" transform="translate(-265.726 -317.81)" fill="#365e7d"/>
    </g>
  </g>
</svg>
