<svg xmlns="http://www.w3.org/2000/svg" xmlns:xlink="http://www.w3.org/1999/xlink" width="30.226" height="35.908" viewBox="0 0 30.226 35.908"><defs><linearGradient id="a" x1="0.682" y1="0.225" x2="0.5" y2="1" gradientUnits="objectBoundingBox"><stop offset="0" stop-color="#32a3d0"/><stop offset="1" stop-color="#2b7ba5"/></linearGradient><filter id="b" x="0" y="0" width="26.174" height="35.908" filterUnits="userSpaceOnUse"><feOffset input="SourceAlpha"/><feGaussianBlur stdDeviation="1.5" result="c"/><feFlood flood-opacity="0.161"/><feComposite operator="in" in2="c"/><feComposite in="SourceGraphic"/></filter></defs><g transform="translate(4.5 4.5)"><g transform="matrix(1, 0, 0, 1, -4.5, -4.5)" filter="url(#b)"><path d="M46.7,25.307V4.851a1.838,1.838,0,0,1-1.434-1.793V.325a.218.218,0,0,0-.124-.2A1.369,1.369,0,0,0,44.565,0H31.332a1.808,1.808,0,0,0-1.808,1.808V25.1a1.808,1.808,0,0,0,1.808,1.808H45.761A1.837,1.837,0,0,0,46.7,25.307Z" transform="translate(-25.02 4.5)" fill="url(#a)"/></g><path d="M299.568,87.45a1.814,1.814,0,0,1-.4-.044v20.136a1.808,1.808,0,0,1-1.808,1.808h3.6a1.808,1.808,0,0,0,1.808-1.808V88.017a1.369,1.369,0,0,0-.123-.567Z" transform="translate(-282.152 -82.442)" fill="url(#a)"/><path d="M308.947,6.657l-4.206-4.206a1.369,1.369,0,0,0-.4-.278V5.25a1.808,1.808,0,0,0,1.808,1.808h3.077A1.37,1.37,0,0,0,308.947,6.657Z" transform="translate(-288.731 -2.05)" fill="url(#a)"/><g transform="translate(3.429 14.805)"><g transform="translate(1.003 1.177)"><path d="M118.469,284.148l.33-.558-1.307-.773a1.965,1.965,0,0,0-2.043-.286l-.848.328a1.8,1.8,0,0,1-1.57-.131l-2.268-1.337-3.222,5.438,2.9,1.714a1.8,1.8,0,0,1,.509.451l.979,1.269a11.263,11.263,0,0,0,2.372,1.877l1.017.6a1.2,1.2,0,0,0,.668-1.333.239.239,0,0,1,.356-.252l.408.242a1.229,1.229,0,0,0,1.672-.388,1.207,1.207,0,0,0-.066-1.365.048.048,0,0,1,.063-.07l.5.3a1.208,1.208,0,0,0,1.6-1.735.056.056,0,0,1,.074-.081l.633.375a1.237,1.237,0,0,0,1.518-.186,1.465,1.465,0,0,0,.316-.566l-4.353-2.578a.7.7,0,0,1-.244-.955Z" transform="translate(-107.542 -281.391)" fill="#ffece3"/><path d="M252.032,392.194l-2.226-1.318a1.19,1.19,0,0,1-.3.535,1.231,1.231,0,0,1-1.391.253l-.881-.522a.439.439,0,0,0-.448.755l.677.4a1.209,1.209,0,0,1-1.643.812l-.719-.426a.439.439,0,1,0-.448.755l.672.4a1.206,1.206,0,0,1-.143.338,1.229,1.229,0,0,1-1.672.388l-.408-.242a.239.239,0,0,0-.356.252,1.2,1.2,0,0,1-.708,1.351l2.838,1.681a1.06,1.06,0,0,0,1.455-.367,1.038,1.038,0,0,0-.374-1.4l1.144.678a1.06,1.06,0,0,0,1.455-.367,1.038,1.038,0,0,0-.374-1.4l.755.447a1.06,1.06,0,0,0,1.455-.367,1.038,1.038,0,0,0-.374-1.4l.929.55a1.06,1.06,0,0,0,1.455-.367A1.038,1.038,0,0,0,252.032,392.194Z" transform="translate(-234.402 -384.658)" fill="#ffddce"/><path d="M279.546,289.625l-1.49-2.515-1.742,1.013a1.8,1.8,0,0,1-1.57.131l-.956-.375a1.536,1.536,0,0,0-.939-.059l-1.464.371a1.536,1.536,0,0,0-1.159,1.489v1.955a.5.5,0,0,0,.5.5,1.508,1.508,0,0,0,1.509-1.508v-.083l2.856,1.692Z" transform="translate(-260.986 -286.785)" fill="#fcd0a3"/><g transform="translate(13.912 2.67)"><path d="M357.033,328.4l-4.548,2.665,3.606,2.135a1.807,1.807,0,0,1,.4-.317l2.379-1.39Z" transform="translate(-352.485 -328.398)" fill="#ffb983"/></g><g transform="translate(1.71 6.662)"><path d="M140.114,400.33l-.588.819a1.037,1.037,0,1,1-1.686-1.21l.588-.819a1.037,1.037,0,1,1,1.686,1.21Z" transform="translate(-137.646 -398.687)" fill="#fcd0a3"/><path d="M170.439,405.729l-1.236,1.722a1.037,1.037,0,1,1-1.686-1.21l1.236-1.722a1.037,1.037,0,1,1,1.686,1.21Z" transform="translate(-165.637 -403.779)" fill="#fcd0a3"/><path d="M200.117,427.035l-1.236,1.722a1.037,1.037,0,0,1-1.686-1.21l1.236-1.722a1.037,1.037,0,1,1,1.686,1.21Z" transform="translate(-193.63 -423.875)" fill="#fcd0a3"/><path d="M233.825,461.812l-.411.573a1.037,1.037,0,0,1-1.686-1.21l.411-.573a1.037,1.037,0,0,1,1.686,1.21Z" transform="translate(-226.201 -456.677)" fill="#ffb983"/></g></g><path d="M95.328,261.275l-.909-.538a.526.526,0,0,0-.721.184l-3.736,6.306a.526.526,0,0,0,.184.721l.909.538a1.283,1.283,0,0,0,1.757-.45l2.965-5A1.283,1.283,0,0,0,95.328,261.275Z" transform="translate(-89.889 -260.663)" fill="#b8e2f3"/><path d="M377.177,260.737l-.909.538a1.283,1.283,0,0,0-.45,1.757l2.965,5a1.283,1.283,0,0,0,1.757.45l.909-.538a.526.526,0,0,0,.185-.721l-3.736-6.306A.526.526,0,0,0,377.177,260.737Z" transform="translate(-359.41 -260.663)" fill="#b8e2f3"/></g><g transform="translate(2.693 7.628)"><path d="M91.73,135.179H77.377a.439.439,0,1,1,0-.878H91.73a.439.439,0,1,1,0,.878Z" transform="translate(-76.938 -134.301)" fill="#ddeafb"/></g><g transform="translate(2.693 4.569)"><path d="M84.554,81.331H77.377a.439.439,0,0,1,0-.878h7.177a.439.439,0,0,1,0,.878Z" transform="translate(-76.938 -80.453)" fill="#ddeafb"/></g><g transform="translate(2.693 10.338)"><path d="M91.73,182.892H77.377a.439.439,0,1,1,0-.878H91.73a.439.439,0,1,1,0,.878Z" transform="translate(-76.938 -182.014)" fill="#ddeafb"/></g></g></svg>